<svg width="24" height="40" viewBox="0 0 24 40" fill="none" xmlns="http://www.w3.org/2000/svg">
<path d="M23 21C23.5523 21 24 20.5523 24 20C24 19.4477 23.5523 19 23 19V21ZM0.292893 19.2929C-0.0976311 19.6834 -0.0976311 20.3166 0.292893 20.7071L6.65685 27.0711C7.04738 27.4616 7.68054 27.4616 8.07107 27.0711C8.46159 26.6805 8.46159 26.0474 8.07107 25.6569L2.41421 20L8.07107 14.3431C8.46159 13.9526 8.46159 13.3195 8.07107 12.9289C7.68054 12.5384 7.04738 12.5384 6.65685 12.9289L0.292893 19.2929ZM23 19H1V21H23V19Z" fill="black" fill-opacity="0.8"/>
</svg>
