<svg width="26" height="28" viewBox="0 0 26 28" fill="none" xmlns="http://www.w3.org/2000/svg">
<path fill-rule="evenodd" clip-rule="evenodd" d="M18 7V9C18 9.34247 17.9656 9.67689 17.9 10H8.10004C8.03445 9.67689 8.00002 9.34247 8.00002 9V7C8.00002 4.23858 10.2386 2 13 2C15.7614 2 18 4.23858 18 7ZM6.07091 10C6.02419 9.6734 6.00002 9.33952 6.00002 9V7C6.00002 3.13401 9.13403 0 13 0C16.866 0 20 3.13401 20 7V9C20 9.33952 19.9758 9.6734 19.9291 10H23.5068C24.7863 10 25.7367 11.1848 25.4592 12.4339L22.348 26.4339C22.1447 27.3489 21.3331 28 20.3957 28L5.60435 28C4.66696 28 3.85533 27.3489 3.65198 26.4339L0.540869 12.4339C0.263308 11.1848 1.21375 10 2.49324 10H6.07091Z" />
</svg>
