<svg width="14" height="16" viewBox="0 0 14 16" fill="none" xmlns="http://www.w3.org/2000/svg">
<g clip-path="url(#clip0_999_3473)">
<path fill-rule="evenodd" clip-rule="evenodd" d="M4.2 0.72C4.2 0.322355 3.8866 0 3.5 0C3.1134 0 2.8 0.322355 2.8 0.72V1.6158C1.22786 1.77635 0 3.14069 0 4.8V8V12.8C0 14.5673 1.39289 16 3.11111 16H10.8889C12.6071 16 14 14.5673 14 12.8V8V4.8C14 4.69629 13.9952 4.59374 13.9858 4.49256C13.8452 2.97485 12.6739 1.76632 11.2 1.6158V0.72C11.2 0.322355 10.8866 0 10.5 0C10.1134 0 9.8 0.322355 9.8 0.72V1.6H4.2V0.72ZM4.2 3.2H3.11111C3.00457 3.2 2.90052 3.21102 2.8 3.23201V4.08C2.8 4.47765 3.1134 4.8 3.5 4.8C3.8866 4.8 4.2 4.47765 4.2 4.08V3.2ZM1.55556 8V12.8C1.55556 13.6837 2.252 14.4 3.11111 14.4H10.8889C11.748 14.4 12.4444 13.6837 12.4444 12.8V8H1.55556ZM11.2 3.23201C11.0995 3.21102 10.9954 3.2 10.8889 3.2H9.8V4.08C9.8 4.47765 10.1134 4.8 10.5 4.8C10.8866 4.8 11.2 4.47765 11.2 4.08V3.23201Z" fill="#7678ED"/>
</g>
<defs>
<clipPath id="clip0_999_3473">
<rect width="14" height="16" fill="white"/>
</clipPath>
</defs>
</svg>
