<svg width="18" height="18" viewBox="0 0 18 18" fill="none" xmlns="http://www.w3.org/2000/svg">
<path fill-rule="evenodd" clip-rule="evenodd" d="M2.63884 1.22307C2.24832 0.832545 1.61515 0.832545 1.22463 1.22307C0.834103 1.61359 0.834103 2.24676 1.22463 2.63728L7.58869 9.00134L1.22453 15.3655C0.83401 15.756 0.83401 16.3892 1.22453 16.7797C1.61506 17.1702 2.24822 17.1702 2.63875 16.7797L9.0029 10.4156L15.3668 16.7794C15.7573 17.1699 16.3905 17.1699 16.781 16.7794C17.1715 16.3889 17.1715 15.7557 16.781 15.3652L10.4171 9.00134L16.7809 2.63757C17.1714 2.24705 17.1714 1.61388 16.7809 1.22336C16.3904 0.832836 15.7572 0.832837 15.3667 1.22336L9.0029 7.58713L2.63884 1.22307Z" fill="black" fill-opacity="0.8"/>
</svg>
