<svg width="22" height="30" viewBox="0 0 22 30" fill="none" xmlns="http://www.w3.org/2000/svg">
<path fill-rule="evenodd" clip-rule="evenodd" d="M2.99996 0C2.44767 0 1.99996 0.447715 1.99996 1C1.99996 1.55228 2.44767 2 2.99996 2H4.99997V12L0.199985 18.4C-0.294443 19.0592 0.175939 20 0.999984 20H9.99996L9.99996 29C9.99996 29.5523 10.4477 30 11 30C11.5522 30 12 29.5523 12 29L12 20H21C21.824 20 22.2944 19.0592 21.8 18.4L17 12H17V2H19C19.5522 2 20 1.55228 20 1C20 0.447715 19.5522 0 19 0H2.99996Z" />
</svg>
