<svg width="100%" height="100%" viewBox="0 0 9 12" fill="none" xmlns="http://www.w3.org/2000/svg">
<path d="M4.358 0.159912C5.00867 0.159912 5.61667 0.223912 6.182 0.351912C6.74733 0.469245 7.238 0.671912 7.654 0.959911C8.07 1.24791 8.39533 1.63191 8.63 2.11191C8.87533 2.58125 8.998 3.16791 8.998 3.87191C8.998 4.54391 8.87533 5.13058 8.63 5.63191C8.39533 6.12258 8.07 6.52791 7.654 6.84791C7.24867 7.16791 6.76867 7.40791 6.214 7.56791C5.65934 7.71725 5.062 7.79191 4.422 7.79191H2.838V11.9999H0.470001V0.159912H4.358ZM4.262 5.91991C5.87267 5.91991 6.678 5.23725 6.678 3.87191C6.678 3.17858 6.46467 2.69858 6.038 2.43191C5.622 2.16525 5.00333 2.03191 4.182 2.03191H2.838V5.91991H4.262Z" fill="white"/>
</svg>
