<svg width="24" height="24" viewBox="0 0 24 24" fill="none" xmlns="http://www.w3.org/2000/svg">
<circle cx="12" cy="12" r="12" fill="#F18701"/>
<path d="M12.3577 6.16016C13.0084 6.16016 13.6164 6.22416 14.1817 6.35216C14.7471 6.46949 15.2377 6.67216 15.6537 6.96016C16.0697 7.24816 16.3951 7.63216 16.6297 8.11216C16.8751 8.58149 16.9977 9.16816 16.9977 9.87216C16.9977 10.5442 16.8751 11.1308 16.6297 11.6322C16.3951 12.1228 16.0697 12.5282 15.6537 12.8482C15.2484 13.1682 14.7684 13.4082 14.2137 13.5682C13.6591 13.7175 13.0617 13.7922 12.4217 13.7922H10.8377V18.0002H8.46973V6.16016H12.3577ZM12.2617 11.9202C13.8724 11.9202 14.6777 11.2375 14.6777 9.87216C14.6777 9.17882 14.4644 8.69882 14.0377 8.43216C13.6217 8.16549 13.0031 8.03216 12.1817 8.03216H10.8377V11.9202H12.2617Z" fill="white"/>
</svg>
