<svg width="100%" height="100%" viewBox="0 0 24 24" fill="none" xmlns="http://www.w3.org/2000/svg">
<path fill-rule="evenodd" clip-rule="evenodd" d="M19.2646 10.8363C19.2646 15.4912 15.4912 19.2646 10.8363 19.2646C6.18154 19.2646 2.40808 15.4912 2.40808 10.8363C2.40808 6.18154 6.18154 2.40808 10.8363 2.40808C15.4912 2.40808 19.2646 6.18154 19.2646 10.8363ZM17.5986 19.3043C15.745 20.7865 13.3942 21.6727 10.8363 21.6727C4.8516 21.6727 0 16.8211 0 10.8363C0 4.8516 4.8516 0 10.8363 0C16.8211 0 21.6727 4.8516 21.6727 10.8363C21.6727 13.3942 20.7864 15.7451 19.3043 17.5987L23.6468 21.9412C24.1177 22.4122 24.1177 23.1759 23.6468 23.6468C23.1758 24.1178 22.4121 24.1178 21.9411 23.6468L17.5986 19.3043Z" fill="black" fill-opacity="0.8"/>
</svg>
