<svg width="24" height="24" viewBox="0 0 24 24" fill="none" xmlns="http://www.w3.org/2000/svg">
<path fill-rule="evenodd" clip-rule="evenodd" d="M13.8 0L14.7536 2.3839C15.4914 2.59477 16.1943 2.88826 16.8517 3.25372L19.2125 2.24195L21.7581 4.78753L20.7463 7.14836C21.1118 7.80576 21.4052 8.50867 21.6161 9.24644L24 10.2V13.8L21.6161 14.7536C21.4052 15.4913 21.1118 16.1942 20.7463 16.8516L21.7581 19.2125L19.2125 21.758L16.8517 20.7463C16.1943 21.1117 15.4914 21.4052 14.7536 21.6161L13.8 24H10.2L9.24644 21.6161C8.50864 21.4052 7.80571 21.1117 7.14829 20.7463L4.78748 21.7581L2.2419 19.2125L3.25368 16.8516C2.88824 16.1942 2.59476 15.4913 2.3839 14.7536L0 13.8V10.2L2.3839 9.24644C2.59476 8.50868 2.88823 7.80578 3.25366 7.14839L2.24187 4.78754L4.78746 2.24196L7.14827 3.25374C7.80569 2.88827 8.50863 2.59477 9.24644 2.3839L10.2 0H13.8ZM12 17C14.7614 17 17 14.7614 17 12C17 9.23858 14.7614 7 12 7C9.23858 7 7 9.23858 7 12C7 14.7614 9.23858 17 12 17Z" fill="#5A56BC"/>
</svg>
