<svg width="100%" height="100%" viewBox="0 0 27 26" fill="none" xmlns="http://www.w3.org/2000/svg">
<path fill-rule="evenodd" clip-rule="evenodd" d="M0.5 2C0.5 0.89543 1.39543 0 2.5 0H24.5C25.6046 0 26.5 0.895431 26.5 2V24C26.5 25.1046 25.6046 26 24.5 26H2.5C1.39543 26 0.5 25.1046 0.5 24V2ZM22.2071 4.29289C22.5976 4.68342 22.5976 5.31658 22.2071 5.70711L13.2071 14.7071C12.8166 15.0976 12.1834 15.0976 11.7929 14.7071L10.5 13.4142L6.20711 17.7071C5.81658 18.0976 5.18342 18.0976 4.79289 17.7071C4.40237 17.3166 4.40237 16.6834 4.79289 16.2929L9.79289 11.2929C10.1834 10.9024 10.8166 10.9024 11.2071 11.2929L12.5 12.5858L20.7929 4.29289C21.1834 3.90237 21.8166 3.90237 22.2071 4.29289ZM5 20C4.44772 20 4 20.4477 4 21C4 21.5523 4.44772 22 5 22H22C22.5523 22 23 21.5523 23 21C23 20.4477 22.5523 20 22 20H5Z" />
</svg>
