<svg width="65" height="27" viewBox="0 0 65 27" fill="none" xmlns="http://www.w3.org/2000/svg">
<path d="M0 4C0 1.79086 1.79086 0 4 0H61C63.2091 0 65 1.79086 65 4V23C65 25.2091 63.2091 27 61 27H4C1.79086 27 0 25.2091 0 23V4Z" fill="#1A1A1A" fill-opacity="0.7"/>
<path d="M18.916 13.308V18.888H17.932V8.136H18.916V12.492H20.692V13.308H18.916ZM14.248 10.992C14.248 11.464 14.32 11.936 14.464 12.408C14.608 12.872 14.804 13.308 15.052 13.716C15.3 14.124 15.588 14.492 15.916 14.82C16.252 15.148 16.608 15.408 16.984 15.6L16.372 16.38C16.084 16.228 15.808 16.04 15.544 15.816C15.28 15.584 15.036 15.324 14.812 15.036C14.596 14.748 14.396 14.436 14.212 14.1C14.036 13.756 13.888 13.4 13.768 13.032C13.536 13.832 13.184 14.544 12.712 15.168C12.24 15.784 11.7 16.26 11.092 16.596L10.504 15.804C10.888 15.604 11.248 15.332 11.584 14.988C11.928 14.644 12.224 14.26 12.472 13.836C12.72 13.404 12.916 12.944 13.06 12.456C13.204 11.968 13.276 11.48 13.276 10.992V9.06H14.248V10.992ZM30.9071 14.244H21.1631V13.452H23.5751V11.94C22.6951 11.588 22.2551 11.048 22.2551 10.32C22.2551 10.008 22.3431 9.728 22.5191 9.48C22.6951 9.232 22.9471 9.024 23.2751 8.856C23.6031 8.68 23.9991 8.548 24.4631 8.46C24.9271 8.364 25.4511 8.316 26.0351 8.316C26.6191 8.316 27.1431 8.364 27.6071 8.46C28.0791 8.548 28.4751 8.68 28.7951 8.856C29.1231 9.024 29.3751 9.232 29.5511 9.48C29.7271 9.728 29.8151 10.008 29.8151 10.32C29.8151 10.68 29.6991 10.996 29.4671 11.268C29.2431 11.54 28.9231 11.76 28.5071 11.928V13.452H30.9071V14.244ZM23.2631 10.32C23.2631 10.704 23.5071 11.008 23.9951 11.232C24.4831 11.448 25.1631 11.556 26.0351 11.556C26.9071 11.556 27.5871 11.448 28.0751 11.232C28.5631 11.008 28.8071 10.704 28.8071 10.32C28.8071 9.928 28.5631 9.624 28.0751 9.408C27.5871 9.192 26.9071 9.084 26.0351 9.084C25.1631 9.084 24.4831 9.192 23.9951 9.408C23.5071 9.624 23.2631 9.928 23.2631 10.32ZM27.5351 13.452V12.192C27.3271 12.232 27.0951 12.264 26.8391 12.288C26.5911 12.304 26.3231 12.312 26.0351 12.312C25.7631 12.312 25.5031 12.304 25.2551 12.288C25.0071 12.264 24.7711 12.232 24.5471 12.192V13.452H27.5351ZM26.0351 15.048C27.1951 15.048 28.0991 15.216 28.7471 15.552C29.3951 15.88 29.7191 16.352 29.7191 16.968C29.7191 17.584 29.3951 18.056 28.7471 18.384C28.0991 18.712 27.1951 18.876 26.0351 18.876C24.8831 18.876 23.9791 18.712 23.3231 18.384C22.6751 18.056 22.3511 17.584 22.3511 16.968C22.3511 16.352 22.6751 15.88 23.3231 15.552C23.9791 15.216 24.8831 15.048 26.0351 15.048ZM26.0351 18.12C26.8831 18.12 27.5431 18.02 28.0151 17.82C28.4871 17.62 28.7231 17.336 28.7231 16.968C28.7231 16.6 28.4871 16.316 28.0151 16.116C27.5431 15.916 26.8831 15.816 26.0351 15.816C25.1871 15.816 24.5271 15.916 24.0551 16.116C23.5831 16.316 23.3471 16.6 23.3471 16.968C23.3471 17.336 23.5831 17.62 24.0551 17.82C24.5271 18.02 25.1871 18.12 26.0351 18.12ZM43.8217 12.588H42.2377V16.368H41.2537V8.136H42.2377V11.772H43.8217V12.588ZM40.6537 14.328C40.0937 14.432 39.5177 14.516 38.9257 14.58C38.3417 14.636 37.7617 14.68 37.1857 14.712C36.6097 14.736 36.0497 14.752 35.5057 14.76C34.9697 14.768 34.4737 14.772 34.0177 14.772L33.8857 13.968C34.3017 13.968 34.7457 13.964 35.2177 13.956C35.6897 13.948 36.1777 13.936 36.6817 13.92V12.84C36.0257 12.76 35.4977 12.536 35.0977 12.168C34.7057 11.792 34.5097 11.316 34.5097 10.74C34.5097 10.428 34.5737 10.144 34.7017 9.888C34.8297 9.624 35.0097 9.4 35.2417 9.216C35.4817 9.024 35.7617 8.88 36.0817 8.784C36.4097 8.68 36.7697 8.628 37.1617 8.628C37.5537 8.628 37.9097 8.68 38.2297 8.784C38.5577 8.88 38.8377 9.024 39.0697 9.216C39.3097 9.4 39.4937 9.624 39.6217 9.888C39.7497 10.144 39.8137 10.428 39.8137 10.74C39.8137 11.316 39.6177 11.788 39.2257 12.156C38.8337 12.524 38.3137 12.748 37.6657 12.828V13.884C38.1697 13.852 38.6657 13.816 39.1537 13.776C39.6417 13.736 40.1177 13.68 40.5817 13.608L40.6537 14.328ZM35.4217 10.74C35.4217 11.156 35.5777 11.488 35.8897 11.736C36.2097 11.984 36.6337 12.108 37.1617 12.108C37.6657 12.108 38.0777 11.984 38.3977 11.736C38.7257 11.488 38.8897 11.156 38.8897 10.74C38.8897 10.332 38.7257 10.004 38.3977 9.756C38.0777 9.5 37.6657 9.372 37.1617 9.372C36.6337 9.372 36.2097 9.5 35.8897 9.756C35.5777 10.004 35.4217 10.332 35.4217 10.74ZM42.6217 17.832V18.636H35.4337V15.672H36.4177V17.832H42.6217ZM54.2048 17.556H44.4248V16.752H47.1608V14.712H45.6488V11.388H52.0328V9.72H45.6248V8.916H52.9928V12.18H46.6208V13.908H53.2448V14.712H51.5648V16.752H54.2048V17.556ZM50.5928 16.752V14.712H48.1328V16.752H50.5928Z" fill="white"/>
</svg>
